<svg width="408" height="394" viewBox="0 0 408 394" fill="none" xmlns="http://www.w3.org/2000/svg">
    <path d="M203.717 0C91.265 0 0 84.5426 0 188.642C0 247.719 29.335 300.278 74.9675 334.91V372.598C74.9675 388.284 91.6721 398.062 105.321 390.321L143.213 368.931C162.363 374.431 182.53 377.283 203.513 377.283C315.964 377.283 407.23 292.741 407.23 188.642C407.433 84.5426 316.168 0 203.717 0ZM275.221 171.937L224.292 232.848C221.033 236.719 215.736 237.534 211.458 235.089L190.882 223.07C188.642 221.847 185.993 221.44 183.345 222.051L142.398 232.033C132.823 234.274 125.897 223.07 132.212 215.532L183.956 154.01C187.012 150.343 192.308 149.324 196.587 151.565L220.625 164.196C222.866 165.418 225.514 165.622 227.959 165.01L265.035 155.436C274.406 152.991 281.536 164.399 275.221 171.937Z" fill="white"/>
</svg>
